HIERARCHY
ROOT pelvis
{
  OFFSET 0 100 0
  CHANNELS 6 Xposition Yposition Zposition Zrotation Xrotation Yrotation
  JOINT pelvis_right_femur
  {
    OFFSET -10.78128 -3.44521 -0.5502486
    CHANNELS 3 Zrotation Xrotation Yrotation
    JOINT right_femur_tibia
    {
      OFFSET -0.8047443 -44.0398 -0.1307829
      CHANNELS 3 Zrotation Xrotation Yrotation
      JOINT right_tibia_foot
      {
        OFFSET 3.006224 -47.83518 -5
        CHANNELS 3 Zrotation Xrotation Yrotation
        End Site
        {
          OFFSET 0 -5 15
        }
      }
    }
  }
  JOINT pelvis_left_femur
  {
    OFFSET 10.78128 -3.44521 -0.5502486
    CHANNELS 3 Zrotation Xrotation Yrotation
    JOINT left_femur_tibia
    {
      OFFSET 0.8047443 -44.0398 -0.1307829
      CHANNELS 3 Zrotation Xrotation Yrotation
      JOINT left_tibia_foot
      {
        OFFSET -4.370144 -48.10324 -4.275266
        CHANNELS 3 Zrotation Xrotation Yrotation
        End Site
        {
          OFFSET 0 -5 15
        }
      }
    }
  }
  JOINT pelvis_spine1
  {
    OFFSET 0 6.468898 -3.129235
    CHANNELS 3 Zrotation Xrotation Yrotation
    JOINT spine1
    {
      OFFSET 0 23.15396 4.99043
      CHANNELS 3 Zrotation Xrotation Yrotation
      JOINT spine2
      {
        OFFSET 0 20.79997 -5.064912
        CHANNELS 3 Zrotation Xrotation Yrotation
        JOINT neck
        {
          OFFSET 0 14.38658 9.616178
          CHANNELS 3 Zrotation Xrotation Yrotation
          End Site
          {
            OFFSET 0 20 0
          }
        }
      }
      JOINT right_manubrium
      {
        OFFSET -5.722621 16.35077 3.967754
        CHANNELS 3 Zrotation Xrotation Yrotation
        JOINT right_clavicle
        {
          OFFSET -13.16364 1.694482 -4.693211
          CHANNELS 3 Zrotation Xrotation Yrotation
          JOINT right_humerus
          {
            OFFSET -28.5034 -0.3100689 -2.792744
            CHANNELS 3 Zrotation Xrotation Yrotation
            JOINT right_radius
            {
              OFFSET -25.15693 0.02248979 -1.271978
              CHANNELS 3 Zrotation Xrotation Yrotation
              End Site
              {
                OFFSET -15 0 0
              }
            }
          }
        }
      }
      JOINT left_manubrium
      {
        OFFSET 5.722621 16.35077 3.967754
        CHANNELS 3 Zrotation Xrotation Yrotation
        JOINT left_clavicle
        {
          OFFSET 13.16364 1.694482 -4.693211
          CHANNELS 3 Zrotation Xrotation Yrotation
          JOINT left_humerus
          {
            OFFSET 29.39168 -1.063119 -2.237045
            CHANNELS 3 Zrotation Xrotation Yrotation
            JOINT left_radius
            {
              OFFSET 24.59957 -0.9528479 0.9047498
              CHANNELS 3 Zrotation Xrotation Yrotation
              End Site
              {
                OFFSET 15 -0 -0
              }
            }
          }
        }
      }
    }
  }
}
MOTION
Frames: 15
Frame Time: 0.0416666666667
-955.9259 136.1465 370.4796 7.352525 5.293443 132.572 6.845029 13.4647 4.705467 -0 17.01859 -0 -8.47153 -11.75274 -3.183592 3.674114 -18.8339 -1.627951 -0 15.52919 -0 7.720651 -0.3373579 14.6635 2.32071 -4.268636 9.012731 0.1101289 18.36054 -6.409 1.148216 17.03272 0.8005485 -2.202807 -21.02059 4.424328 -4.955605 -35.23382 12.67987 93.0173 13.61517 -10.27413 -0 0 31.32876 -21.64344 16.89128 17.77359 -0.5762993 -22.13154 -8.584034 -92.24114 10.05193 41.36592 0 0 -19.93217 2.481371 9.573641 13.26232
-952.5891 136.0764 365.766 7.406462 5.221591 132.001 6.843666 13.4684 4.699028 -0 17.00882 -0 -8.473325 -11.75525 -3.18339 3.675832 -18.83375 -1.630013 -0 15.52651 -0 7.714532 -0.3403208 14.66845 2.318176 -4.267825 9.009251 0.1101297 18.3575 -6.406824 1.149575 17.03808 0.8023028 -2.199358 -21.01597 4.425513 -4.949703 -35.22537 12.6806 93.0096 13.6163 -10.27116 -0 0 31.32023 -21.65189 16.89685 17.77416 -0.5714171 -22.13225 -8.582745 -92.24695 10.05638 41.35501 0 0 -19.91067 2.485477 9.586666 13.25285
-949.2053 136.0057 361.0867 7.4596 5.148991 131.43 6.842488 13.47183 4.69324 -0 16.99997 -0 -8.474988 -11.75716 -3.183162 3.677562 -18.83376 -1.631449 -0 15.52349 -0 7.709108 -0.3426613 14.67293 2.315919 -4.26724 9.006238 0.1102303 18.35499 -6.404981 1.15066 17.04281 0.8039781 -2.196096 -21.01172 4.42638 -4.944402 -35.21803 12.68139 93.00276 13.61669 -10.26874 -0 0 31.31269 -21.65955 16.90153 17.77456 -0.5669996 -22.13334 -8.581855 -92.25238 10.05997 41.34556 0 0 -19.89122 2.489298 9.598055 13.24427
-945.7747 135.9345 356.4421 7.511916 5.075647 130.8588 6.841501 13.47498 4.688138 -0 16.99211 -0 -8.476509 -11.75845 -3.18291 3.679288 -18.83394 -1.63226 -0 15.52016 -0 7.704408 -0.344373 14.6769 2.313952 -4.26688 9.003705 0.1104282 18.35304 -6.403479 1.151466 17.04686 0.8055624 -2.193043 -21.00785 4.426927 -4.93973 -35.21185 12.68224 92.99684 13.61635 -10.26688 -0 0 31.30619 -21.66637 16.90529 17.77477 -0.5630729 -22.13479 -8.581365 -92.25738 10.06269 41.33762 0 0 -19.87394 2.492807 9.607747 13.23661
-942.2978 135.8627 351.8324 7.563387 5.001568 130.2876 6.840708 13.47782 4.683748 -0 16.98527 -0 -8.477878 -11.75912 -3.182638 3.680999 -18.83426 -1.632449 -0 15.51656 -0 7.700455 -0.3454542 14.68036 2.312284 -4.266746 9.001665 0.1107203 18.35163 -6.402323 1.151992 17.05022 0.8070445 -2.190219 -21.00441 4.427156 -4.935713 -35.20685 12.68313 92.99184 13.61529 -10.26558 -0 0 31.30074 -21.67232 16.90813 17.77481 -0.5596591 -22.13659 -8.581271 -92.26194 10.06454 41.33122 0 0 -19.85891 2.495981 9.6157 13.22992
-938.7748 135.7905 347.2582 7.613991 4.926762 129.7163 6.840112 13.48033 4.680092 -0 16.97949 -0 -8.479087 -11.7592 -3.182347 3.68268 -18.83474 -1.632025 -0 15.51273 -0 7.697267 -0.3459078 14.68326 2.310924 -4.266833 9.000124 0.1111028 18.35078 -6.401517 1.15224 17.05288 0.8084142 -2.187643 -21.00139 4.42707 -4.932371 -35.20306 12.68405 92.9878 13.61354 -10.26485 -0 0 31.29639 -21.67736 16.91004 17.77468 -0.5567761 -22.13872 -8.581567 -92.26602 10.06552 41.32638 0 0 -19.84623 2.498802 9.62188 13.22425
-935.2061 135.7179 342.7196 7.663708 4.85124 129.1451 6.839715 13.48251 4.677187 -0 16.97479 -0 -8.480129 -11.75867 -3.182042 3.68432 -18.83536 -1.631003 -0 15.50868 -0 7.694857 -0.3457414 14.68562 2.309875 -4.267139 8.999087 0.1115713 18.35048 -6.401061 1.152211 17.05484 0.8096622 -2.185331 -20.99883 4.426675 -4.929718 -35.20047 12.68501 92.98474 13.61111 -10.26469 -0 0 31.29314 -21.68147 16.91102 17.77437 -0.5544376 -22.14115 -8.582244 -92.26959 10.06563 41.32312 0 0 -19.83594 2.501251 9.626271 13.21961
-931.5919 135.645 338.2171 7.712518 4.775017 128.5739 6.839515 13.48433 4.675043 -0 16.9712 -0 -8.480998 -11.75756 -3.181724 3.685906 -18.83612 -1.629399 -0 15.50447 -0 7.693229 -0.3449669 14.6874 2.309141 -4.267656 8.998552 0.112121 18.35073 -6.400954 1.151912 17.05607 0.8107806 -2.183297 -20.99673 4.425978 -4.927762 -35.1991 12.68598 92.98265 13.60804 -10.26507 -0 0 31.291 -21.68463 16.91107 17.7739 -0.5526528 -22.14387 -8.583291 -92.27264 10.06488 41.32144 0 0 -19.82809 2.503315 9.628867 13.21603
-927.9327 135.5719 333.751 7.760404 4.698106 128.0027 6.83951 13.48581 4.673664 -0 16.96873 -0 -8.481691 -11.75589 -3.181398 3.687426 -18.837 -1.627234 -0 15.50012 -0 7.692384 -0.3436005 14.68862 2.308721 -4.268378 8.998516 0.1127464 18.35151 -6.40119 1.151349 17.0566 0.8117623 -2.181551 -20.99511 4.42499 -4.926507 -35.19893 12.68698 92.98155 13.60436 -10.266 -0 0 31.28998 -21.68684 16.91022 17.77327 -0.5514267 -22.14684 -8.584694 -92.27516 10.06331 41.32131 0 0 -19.8227 2.504984 9.629678 13.21351
-924.2287 135.4985 329.3217 7.80735 4.620526 127.4316 6.839698 13.48691 4.673048 -0 16.96736 -0 -8.482205 -11.75368 -3.181065 3.688871 -18.838 -1.624534 -0 15.49567 -0 7.692317 -0.3416625 14.68927 2.308613 -4.269295 8.998972 0.1134419 18.3528 -6.401762 1.150529 17.05641 0.8126016 -2.180103 -20.99396 4.423722 -4.925952 -35.19994 12.68798 92.98142 13.60011 -10.26746 -0 0 31.29005 -21.68808 16.90848 17.77249 -0.55076 -22.15004 -8.586437 -92.27713 10.06093 41.32272 0 0 -19.81977 2.506251 9.628725 13.21206
-920.4803 135.4251 324.9295 7.853341 4.542296 126.8607 6.840074 13.48765 4.673189 -0 16.96711 -0 -8.482539 -11.75095 -3.180729 3.690231 -18.83911 -1.621327 -0 15.49115 -0 7.693015 -0.3391772 14.68935 2.308813 -4.270397 8.999907 0.1142012 18.3546 -6.402661 1.149465 17.05554 0.813294 -2.178959 -20.99329 4.422189 -4.92609 -35.20211 12.68897 92.98225 13.59533 -10.26942 -0 0 31.29119 -21.68838 16.90588 17.77156 -0.550649 -22.15344 -8.5885 -92.27854 10.05777 41.32564 0 0 -19.81929 2.507112 9.626043 13.21168
-916.6879 135.3515 320.5747 7.898365 4.463435 126.2899 6.840631 13.48803 4.674072 -0 16.96794 -0 -8.482694 -11.74773 -3.180392 3.691495 -18.84032 -1.617646 -0 15.48661 -0 7.694463 -0.3361725 14.68888 2.309314 -4.271673 9.001307 0.1150177 18.35688 -6.403875 1.148167 17.05399 0.8138363 -2.178123 -20.99309 4.420405 -4.926909 -35.2054 12.68996 92.98401 13.59006 -10.27187 -0 0 31.2934 -21.68773 16.90244 17.77049 -0.5510859 -22.15701 -8.590863 -92.27939 10.05388 41.33 0 0 -19.82121 2.507567 9.621681 13.21234
-912.8517 135.278 316.2576 7.942411 4.383965 125.7194 6.841364 13.48805 4.675681 -0 16.96985 -0 -8.482672 -11.74405 -3.180058 3.692657 -18.84162 -1.613526 -0 15.48207 -0 7.696638 -0.3326796 14.68786 2.310107 -4.273111 9.003155 0.1158843 18.35962 -6.40539 1.146649 17.05179 0.8142266 -2.177597 -20.99336 4.418389 -4.928391 -35.20978 12.69094 92.98669 13.58436 -10.27477 -0 0 31.29662 -21.68616 16.89822 17.7693 -0.5520588 -22.16072 -8.593503 -92.27969 10.04928 41.33577 0 0 -19.8255 2.50762 9.615696 13.21404
-908.9722 135.2046 311.9787 7.98547 4.303911 125.149 6.842263 13.4877 4.677991 -0 16.97278 -0 -8.482476 -11.73995 -3.179729 3.693708 -18.843 -1.609004 -0 15.47758 -0 7.699512 -0.3287331 14.68632 2.311181 -4.274696 9.005429 0.1167939 18.36278 -6.40719 1.144926 17.04897 0.8144642 -2.177381 -20.99409 4.416158 -4.930517 -35.21518 12.69189 92.99024 13.57827 -10.2781 -0 0 31.30082 -21.68369 16.89325 17.768 -0.5535518 -22.16455 -8.596396 -92.27944 10.04404 41.34286 0 0 -19.83208 2.507276 9.60816 13.21674
-905.0497 135.1313 307.7381 8.027537 4.223295 124.5789 6.843319 13.48701 4.680973 -0 16.97671 -0 -8.48211 -11.73547 -3.179407 3.694643 -18.84445 -1.604122 -0 15.47316 -0 7.703053 -0.3243705 14.68426 2.312524 -4.276415 9.008105 0.1177391 18.36633 -6.409256 1.143014 17.04555 0.8145497 -2.17747 -20.99527 4.413734 -4.933258 -35.22155 12.69281 92.99462 13.57184 -10.28183 -0 0 31.30595 -21.68036 16.88759 17.76659 -0.5555451 -22.16846 -8.599515 -92.27865 10.0382 41.35121 0 0 -19.84087 2.506545 9.599156 13.22039
